# xmcd CD database file
#
# Track frame offsets:
#	150
#	18230
#	31730
#	52670
#	60530
#	70752
#	85307
#	99890
#	115005
#	133922
#	150087
#	162157
#	174075
#	186697
#
# Disc length: 2672 seconds
#
# Revision: 0
# Processed by: cddbd v1.5.2PL0 Copyright (c) Steve Scherf et al.
# Submitted via: CDex 1.70beta2
#
DISCID=9e0a6e0e
DTITLE=The best of country Vol 2 - The best of country Vol 2
DYEAR=1997
DGENRE=Country
TTITLE0=01 Lady
TTITLE1=02 Gentle On My Mind
TTITLE2=03 Mr. Tambourine Man
TTITLE3=04 Oh Susanna
TTITLE4=05 I Walk The Line
TTITLE5=06 Today I Started Loving You Again
TTITLE6=07 Old Flame
TTITLE7=08 He Got You
TTITLE8=09 Holy Holy
TTITLE9=10 I Wouldn't Have Missed It For The World
TTITLE10=11 The Bargain Store
TTITLE11=12 Heartaches By The Number
TTITLE12=13 Good Heated Woman
TTITLE13=14 Two Doors Down
EXTD=YEAR: 1997
EXTT0=
EXTT1=
EXTT2=
EXTT3=
EXTT4=
EXTT5=
EXTT6=
EXTT7=
EXTT8=
EXTT9=
EXTT10=
EXTT11=
EXTT12=
EXTT13=
PLAYORDER=
